<svg width="512" height="512" viewBox="0 0 512 512" fill="none" xmlns="http://www.w3.org/2000/svg">
<g clip-path="url(#clip0_2293_3106)">
<rect width="512" height="512" rx="186" fill="#FF9556"/>
<path d="M270.763 432.741C268.374 432.741 264.278 432.058 258.475 430.693C253.014 429.328 249.43 427.45 247.723 425.061C244.31 406.288 241.579 386.661 239.531 366.181C237.483 345.36 236.288 324.88 235.947 304.741C228.438 288.357 220.928 270.608 213.419 251.493C205.91 232.378 198.912 213.093 192.427 193.637C185.942 173.84 180.48 155.066 176.043 137.317C171.606 119.226 168.534 103.354 166.827 89.701L211.371 68.709L224.683 76.901C224.683 107.962 226.902 138.682 231.339 169.061C235.776 199.44 242.262 228.282 250.795 255.589C252.502 252.176 256.086 245.52 261.547 235.621C267.35 225.381 274.347 213.434 282.539 199.781C290.731 185.786 299.606 171.28 309.163 156.261C318.72 140.901 328.278 126.224 337.835 112.229C347.392 97.893 356.438 85.4343 364.971 74.853C366.678 72.805 369.92 71.0983 374.699 69.733C379.819 68.3677 383.915 67.685 386.987 67.685C389.035 67.685 390.059 68.5383 390.059 70.245C390.059 71.9517 386.987 77.925 380.843 88.165C374.699 98.0637 366.848 111.034 357.291 127.077C347.734 142.778 337.664 160.528 327.083 180.325C316.502 200.122 306.603 220.602 297.387 241.765C288.171 262.928 281.003 283.578 275.883 303.717C273.835 323.514 272.811 345.872 272.811 370.789C272.811 393.658 273.152 409.018 273.835 416.869C274.518 424.72 274.859 429.498 274.859 431.205C274.859 432.229 273.494 432.741 270.763 432.741Z" fill="white"/>
</g>
<defs>
<clipPath id="clip0_2293_3106">
<rect width="512" height="512" rx="186" fill="white"/>
</clipPath>
</defs>
</svg>
